<?xml version="1.0" encoding="utf-8"?>
<!-- Generator: Adobe Illustrator 25.4.0, SVG Export Plug-In . SVG Version: 6.00 Build 0)  -->
<svg version="1.1" id="Layer_1" xmlns="http://www.w3.org/2000/svg" xmlns:xlink="http://www.w3.org/1999/xlink" x="0px" y="0px"
	 viewBox="0 0 1544 500" style="enable-background:new 0 0 1544 500;" xml:space="preserve">
<style type="text/css">
	.st0{fill:#517ABD;}
	.st1{fill:#332F52;}
</style>
<path class="st0" d="M460.1,139.3L336.5,87.8c-3.2-1.3-8.5-2.4-11.8-2.4c-3.4,0-8.8,1.1-11.9,2.4l-123.6,51.5
	c-11.5,4.8-19.1,16-19.1,27.9C170.1,333.4,291.9,415,324,415c33.5,0,155.1-82.5,155.1-247.8C479.1,155.4,471.6,144.1,460.1,139.3z
	 M340.1,251.8v44.8c0,8.5-7,15.4-15.4,15.4s-15.4-7-15.4-15.4v-44.8c-12.2-5.8-20.6-18.1-20.6-32.4c0-19.9,16.2-36,36-36
	s36,16.2,36,36C360.7,233.7,352.2,246,340.1,251.8z"/>
<g>
	<path class="st1" d="M583.9,215.2v22h35.5v20.5h-35.5v23.9h40.2v21.2h-66.8V193.9H624v21.2L583.9,215.2L583.9,215.2z"/>
	<path class="st1" d="M641,236c3.3-6.7,7.9-11.9,13.7-15.5c5.8-3.6,12.3-5.4,19.4-5.4c6.1,0,11.5,1.2,16.1,3.7
		c4.6,2.5,8.2,5.7,10.6,9.8v-12.3h26.5v86.6h-26.5v-12.3c-2.6,4.1-6.2,7.3-10.8,9.8c-4.6,2.5-10,3.7-16.1,3.7
		c-7,0-13.5-1.9-19.2-5.5c-5.8-3.7-10.4-8.9-13.7-15.7c-3.3-6.8-5-14.6-5-23.5C636,250.5,637.7,242.6,641,236z M695.4,243.9
		c-3.7-3.8-8.2-5.7-13.5-5.7s-9.8,1.9-13.5,5.7c-3.7,3.8-5.5,9-5.5,15.6c0,6.6,1.9,11.8,5.5,15.8c3.7,3.9,8.2,5.8,13.5,5.8
		s9.8-1.9,13.5-5.7c3.7-3.8,5.5-9.1,5.5-15.7C700.9,252.9,699.1,247.7,695.4,243.9z"/>
	<path class="st1" d="M761.7,300.2c-5.9-2.6-10.6-6.1-14-10.6c-3.4-4.5-5.3-9.5-5.7-15.1h26.3c0.3,3,1.7,5.4,4.2,7.3
		c2.5,1.9,5.5,2.8,9.1,2.8c3.3,0,5.9-0.6,7.7-1.9s2.7-3,2.7-5c0-2.5-1.3-4.3-3.9-5.5c-2.6-1.2-6.8-2.5-12.6-3.9
		c-6.2-1.4-11.4-3-15.5-4.6c-4.1-1.6-7.7-4.1-10.7-7.6c-3-3.5-4.5-8.2-4.5-14c0-5,1.4-9.5,4.1-13.6c2.8-4.1,6.8-7.3,12.1-9.7
		c5.3-2.4,11.7-3.5,19-3.5c10.9,0,19.4,2.7,25.7,8c6.2,5.4,9.8,12.6,10.8,21.4H792c-0.4-3-1.7-5.4-4-7.1c-2.3-1.7-5.1-2.6-8.8-2.6
		c-3.1,0-5.5,0.6-7.1,1.8s-2.5,2.8-2.5,4.9c0,2.5,1.3,4.4,3.9,5.6c2.6,1.2,6.8,2.5,12.4,3.7c6.4,1.7,11.7,3.3,15.7,4.9
		c4.1,1.6,7.6,4.2,10.6,7.8c3,3.5,4.6,8.4,4.8,14.4c0,5.1-1.4,9.6-4.2,13.6c-2.8,4-7,7.1-12.3,9.4c-5.3,2.3-11.5,3.4-18.5,3.4
		C774.4,304.1,767.6,302.8,761.7,300.2z"/>
	<path class="st1" d="M921.8,216.3L867.5,344h-28.6l19.9-44.1l-35.2-83.7h29.7l20,54.2l19.9-54.2L921.8,216.3L921.8,216.3z"/>
	<path class="st1" d="M990.9,282.4h34.8v20.5h-61.3v-109h26.5L990.9,282.4L990.9,282.4z"/>
	<path class="st1" d="M1054.9,298.7c-6.8-3.6-12.1-8.8-16-15.5s-5.8-14.6-5.8-23.6c0-8.9,2-16.7,5.9-23.5s9.3-12,16.2-15.6
		c6.8-3.6,14.5-5.4,23-5.4c8.5,0,16.2,1.8,23,5.4c6.8,3.6,12.2,8.8,16.2,15.6s5.9,14.6,5.9,23.5c0,8.9-2,16.7-6,23.5
		c-4,6.8-9.4,12-16.3,15.6s-14.5,5.4-23,5.4C1069.4,304.1,1061.7,302.3,1054.9,298.7z M1090.8,275.5c3.5-3.7,5.3-9.1,5.3-16
		c0-7-1.7-12.3-5.2-16c-3.5-3.7-7.7-5.6-12.8-5.6c-5.1,0-9.5,1.9-12.9,5.5s-5.1,9-5.1,16.1c0,7,1.7,12.3,5,16
		c3.3,3.7,7.6,5.6,12.7,5.6C1082.9,281.1,1087.2,279.3,1090.8,275.5z"/>
	<path class="st1" d="M1186.3,218.7c4.6,2.5,8.2,5.7,10.6,9.8v-12.3h26.5v86.5c0,8-1.6,15.2-4.8,21.6c-3.2,6.4-8,11.6-14.4,15.4
		c-6.4,3.8-14.5,5.7-24.1,5.7c-12.8,0-23.2-3-31.2-9.1c-8-6.1-12.6-14.2-13.6-24.6h26.3c0.8,3.3,2.8,5.9,5.9,7.9
		c3.1,1.9,7,2.9,11.5,2.9c5.5,0,9.8-1.6,13.1-4.8c3.3-3.2,4.9-8.2,4.9-15.1v-12.3c-2.6,4.1-6.2,7.3-10.7,9.8
		c-4.6,2.5-9.9,3.8-16,3.8c-7.1,0-13.6-1.9-19.4-5.5c-5.8-3.7-10.4-8.9-13.7-15.7c-3.3-6.8-5-14.6-5-23.5c0-8.9,1.7-16.7,5-23.4
		s7.9-11.9,13.7-15.5c5.8-3.6,12.3-5.4,19.4-5.4C1176.3,215,1181.7,216.3,1186.3,218.7z M1191.4,243.9c-3.7-3.8-8.2-5.7-13.5-5.7
		c-5.3,0-9.8,1.9-13.5,5.7c-3.7,3.8-5.5,9-5.5,15.6c0,6.6,1.9,11.8,5.5,15.8c3.7,3.9,8.2,5.8,13.5,5.8c5.3,0,9.8-1.9,13.5-5.7
		c3.7-3.8,5.5-9.1,5.5-15.7C1196.9,252.9,1195.1,247.7,1191.4,243.9z"/>
	<path class="st1" d="M1244.7,203.1c-3-2.8-4.4-6.1-4.4-10.2c0-4.1,1.5-7.6,4.4-10.3c3-2.8,6.8-4.1,11.4-4.1c4.6,0,8.3,1.4,11.3,4.1
		c3,2.8,4.4,6.2,4.4,10.3c0,4.1-1.5,7.4-4.4,10.2c-3,2.8-6.7,4.1-11.3,4.1C1251.4,207.2,1247.6,205.8,1244.7,203.1z M1269.2,216.3
		v86.6h-26.5v-86.6H1269.2z"/>
	<path class="st1" d="M1365.6,225.1c6.1,6.6,9.1,15.6,9.1,27.1v50.6h-26.4v-47.1c0-5.8-1.5-10.3-4.5-13.5s-7-4.8-12.1-4.8
		c-5.1,0-9.1,1.6-12.1,4.8c-3,3.2-4.5,7.7-4.5,13.5v47.1h-26.5v-86.6h26.5v11.5c2.7-3.8,6.3-6.8,10.9-9.1c4.6-2.3,9.7-3.3,15.4-3.3
		C1351.4,215.3,1359.6,218.6,1365.6,225.1z"/>
</g>
</svg>
