<?xml version="1.0" encoding="utf-8"?>
<!-- Generator: Adobe Illustrator 25.4.0, SVG Export Plug-In . SVG Version: 6.00 Build 0)  -->
<svg version="1.1" id="Layer_1" xmlns="http://www.w3.org/2000/svg" xmlns:xlink="http://www.w3.org/1999/xlink" x="0px" y="0px"
	 viewBox="0 0 1024 1024" style="enable-background:new 0 0 1024 1024;" xml:space="preserve">
<style type="text/css">
	.st0{fill:#517ABD;}
</style>
<path class="st0" d="M897.1,196.1L545.5,49.6c-9-3.7-24.2-6.8-33.7-6.8c-9.7,0-24.9,3.1-33.9,6.8L126.4,196.1
	c-32.8,13.5-54.2,45.6-54.2,79.5c0,472.6,346.4,704.8,437.8,704.8c95.2,0,441.1-234.7,441.1-704.8
	C951.1,241.7,929.7,209.7,897.1,196.1z M555.6,516v127.4c0,24.2-19.8,43.9-43.9,43.9c-24.2,0-43.9-19.8-43.9-43.9V516
	c-34.6-16.5-58.6-51.5-58.6-92.3c0-56.6,46-102.5,102.5-102.5s102.5,46,102.5,102.5C614.2,464.6,590.2,499.5,555.6,516z"/>
</svg>
